<?xml version="1.0" encoding="UTF-8" standalone="no"?>
<!-- Created by diasvg.py -->
<svg width="47.600cm" height="17.185cm" viewBox="1.450 0.950 49.050 18.135"
 xmlns="http://www.w3.org/2000/svg"
 xmlns:xlink="http://www.w3.org/1999/xlink">
<ellipse cx="2.500" cy="14.000" rx="1.000" ry="1.000" fill="#FFFFFF" stroke="none"  /><ellipse cx="2.500" cy="14.000" rx="1.000" ry="1.000" fill="none" stroke="#000000"  stroke-width="0.100" /><text x="2.500" y="14.344"  fill="#000000" text-anchor="middle" font-size="1.41" font-family="DejaVu Sans" font-style="normal" font-weight="400">
0</text>
<ellipse cx="5.500" cy="14.000" rx="1.000" ry="1.000" fill="#FFFFFF" stroke="none"  /><ellipse cx="5.500" cy="14.000" rx="1.000" ry="1.000" fill="none" stroke="#000000"  stroke-width="0.100" /><text x="5.500" y="14.344"  fill="#000000" text-anchor="middle" font-size="1.41" font-family="DejaVu Sans" font-style="normal" font-weight="400">
0</text>
<ellipse cx="8.500" cy="14.000" rx="1.000" ry="1.000" fill="#FFFFFF" stroke="none"  /><ellipse cx="8.500" cy="14.000" rx="1.000" ry="1.000" fill="none" stroke="#000000"  stroke-width="0.100" /><text x="8.500" y="14.344"  fill="#000000" text-anchor="middle" font-size="1.41" font-family="DejaVu Sans" font-style="normal" font-weight="400">
0</text>
<ellipse cx="11.500" cy="14.000" rx="1.000" ry="1.000" fill="#FFFFFF" stroke="none"  /><ellipse cx="11.500" cy="14.000" rx="1.000" ry="1.000" fill="none" stroke="#000000"  stroke-width="0.100" /><text x="11.500" y="14.344"  fill="#000000" text-anchor="middle" font-size="1.41" font-family="DejaVu Sans" font-style="normal" font-weight="400">
0</text>
<ellipse cx="14.500" cy="14.000" rx="1.000" ry="1.000" fill="#FFFFFF" stroke="none"  /><ellipse cx="14.500" cy="14.000" rx="1.000" ry="1.000" fill="none" stroke="#000000"  stroke-width="0.100" /><text x="14.500" y="14.344"  fill="#000000" text-anchor="middle" font-size="1.41" font-family="DejaVu Sans" font-style="normal" font-weight="400">
0</text>
<ellipse cx="17.500" cy="14.000" rx="1.000" ry="1.000" fill="#FFFFFF" stroke="none"  /><ellipse cx="17.500" cy="14.000" rx="1.000" ry="1.000" fill="none" stroke="#000000"  stroke-width="0.100" /><text x="17.500" y="14.344"  fill="#000000" text-anchor="middle" font-size="1.41" font-family="DejaVu Sans" font-style="normal" font-weight="400">
0</text>
<ellipse cx="20.500" cy="14.000" rx="1.000" ry="1.000" fill="#FFFFFF" stroke="none"  /><ellipse cx="20.500" cy="14.000" rx="1.000" ry="1.000" fill="none" stroke="#000000"  stroke-width="0.100" /><text x="20.500" y="14.344"  fill="#000000" text-anchor="middle" font-size="1.41" font-family="DejaVu Sans" font-style="normal" font-weight="400">
0</text>
<ellipse cx="23.500" cy="14.000" rx="1.000" ry="1.000" fill="#FFFFFF" stroke="none"  /><ellipse cx="23.500" cy="14.000" rx="1.000" ry="1.000" fill="none" stroke="#000000"  stroke-width="0.100" /><text x="23.500" y="14.344"  fill="#000000" text-anchor="middle" font-size="1.41" font-family="DejaVu Sans" font-style="normal" font-weight="400">
0</text>
<ellipse cx="4.000" cy="10.000" rx="1.000" ry="1.000" fill="#FFFFFF" stroke="none"  /><ellipse cx="4.000" cy="10.000" rx="1.000" ry="1.000" fill="none" stroke="#000000"  stroke-width="0.100" /><text x="4.000" y="10.344"  fill="#000000" text-anchor="middle" font-size="1.41" font-family="DejaVu Sans" font-style="normal" font-weight="400">
1</text>
<ellipse cx="10.000" cy="10.000" rx="1.000" ry="1.000" fill="#FFFFFF" stroke="none"  /><ellipse cx="10.000" cy="10.000" rx="1.000" ry="1.000" fill="none" stroke="#000000"  stroke-width="0.100" /><text x="10.000" y="10.344"  fill="#000000" text-anchor="middle" font-size="1.41" font-family="DejaVu Sans" font-style="normal" font-weight="400">
1</text>
<ellipse cx="16.000" cy="10.000" rx="1.000" ry="1.000" fill="#FFFFFF" stroke="none"  /><ellipse cx="16.000" cy="10.000" rx="1.000" ry="1.000" fill="none" stroke="#000000"  stroke-width="0.100" /><text x="16.000" y="10.344"  fill="#000000" text-anchor="middle" font-size="1.41" font-family="DejaVu Sans" font-style="normal" font-weight="400">
1</text>
<ellipse cx="22.000" cy="10.000" rx="1.000" ry="1.000" fill="#FFFFFF" stroke="none"  /><ellipse cx="22.000" cy="10.000" rx="1.000" ry="1.000" fill="none" stroke="#000000"  stroke-width="0.100" /><text x="22.000" y="10.344"  fill="#000000" text-anchor="middle" font-size="1.41" font-family="DejaVu Sans" font-style="normal" font-weight="400">
1</text>
<ellipse cx="7.000" cy="6.000" rx="1.000" ry="1.000" fill="#FFFFFF" stroke="none"  /><ellipse cx="7.000" cy="6.000" rx="1.000" ry="1.000" fill="none" stroke="#000000"  stroke-width="0.100" /><text x="7.000" y="6.344"  fill="#000000" text-anchor="middle" font-size="1.41" font-family="DejaVu Sans" font-style="normal" font-weight="400">
2</text>
<ellipse cx="19.000" cy="6.000" rx="1.000" ry="1.000" fill="#FFFFFF" stroke="none"  /><ellipse cx="19.000" cy="6.000" rx="1.000" ry="1.000" fill="none" stroke="#000000"  stroke-width="0.100" /><text x="19.000" y="6.344"  fill="#000000" text-anchor="middle" font-size="1.41" font-family="DejaVu Sans" font-style="normal" font-weight="400">
2</text>
<ellipse cx="13.000" cy="2.000" rx="1.000" ry="1.000" fill="#FFFFFF" stroke="none"  /><ellipse cx="13.000" cy="2.000" rx="1.000" ry="1.000" fill="none" stroke="#000000"  stroke-width="0.100" /><text x="13.000" y="2.344"  fill="#000000" text-anchor="middle" font-size="1.41" font-family="DejaVu Sans" font-style="normal" font-weight="400">
3</text>
<line x1="12.127" y1="2.582" x2="7.873" y2="5.418" stroke="#000000" stroke-width="0.100" />
<line x1="13.873" y1="2.582" x2="18.127" y2="5.418" stroke="#000000" stroke-width="0.100" />
<line x1="18.370" y1="6.840" x2="16.630" y2="9.160" stroke="#000000" stroke-width="0.100" />
<line x1="6.370" y1="6.840" x2="4.630" y2="9.160" stroke="#000000" stroke-width="0.100" />
<line x1="7.630" y1="6.840" x2="9.370" y2="9.160" stroke="#000000" stroke-width="0.100" />
<line x1="3.631" y1="10.983" x2="2.869" y2="13.017" stroke="#000000" stroke-width="0.100" />
<line x1="4.369" y1="10.983" x2="5.131" y2="13.017" stroke="#000000" stroke-width="0.100" />
<line x1="9.631" y1="10.983" x2="8.869" y2="13.017" stroke="#000000" stroke-width="0.100" />
<line x1="10.369" y1="10.983" x2="11.131" y2="13.017" stroke="#000000" stroke-width="0.100" />
<line x1="15.631" y1="10.983" x2="14.869" y2="13.017" stroke="#000000" stroke-width="0.100" />
<line x1="16.369" y1="10.983" x2="17.131" y2="13.017" stroke="#000000" stroke-width="0.100" />
<line x1="21.631" y1="10.983" x2="20.869" y2="13.017" stroke="#000000" stroke-width="0.100" />
<line x1="22.369" y1="10.983" x2="23.131" y2="13.017" stroke="#000000" stroke-width="0.100" />
<line x1="19.630" y1="6.840" x2="21.370" y2="9.160" stroke="#000000" stroke-width="0.100" />
<ellipse cx="27.000" cy="14.000" rx="1.000" ry="1.000" fill="#FFFFFF" stroke="none"  /><ellipse cx="27.000" cy="14.000" rx="1.000" ry="1.000" fill="none" stroke="#000000"  stroke-width="0.100" /><text x="27.000" y="14.344"  fill="#000000" text-anchor="middle" font-size="1.41" font-family="DejaVu Sans" font-style="normal" font-weight="400">
3</text>
<ellipse cx="30.000" cy="14.000" rx="1.000" ry="1.000" fill="#FFFFFF" stroke="none"  /><ellipse cx="30.000" cy="14.000" rx="1.000" ry="1.000" fill="none" stroke="#000000"  stroke-width="0.100" /><text x="30.000" y="14.344"  fill="#000000" text-anchor="middle" font-size="1.41" font-family="DejaVu Sans" font-style="normal" font-weight="400">
3</text>
<ellipse cx="33.000" cy="14.000" rx="1.000" ry="1.000" fill="#FFFFFF" stroke="none"  /><ellipse cx="33.000" cy="14.000" rx="1.000" ry="1.000" fill="none" stroke="#000000"  stroke-width="0.100" /><text x="33.000" y="14.344"  fill="#000000" text-anchor="middle" font-size="1.41" font-family="DejaVu Sans" font-style="normal" font-weight="400">
3</text>
<ellipse cx="36.000" cy="14.000" rx="1.000" ry="1.000" fill="#FFFFFF" stroke="none"  /><ellipse cx="36.000" cy="14.000" rx="1.000" ry="1.000" fill="none" stroke="#000000"  stroke-width="0.100" /><text x="36.000" y="14.344"  fill="#000000" text-anchor="middle" font-size="1.41" font-family="DejaVu Sans" font-style="normal" font-weight="400">
3</text>
<ellipse cx="39.000" cy="14.000" rx="1.000" ry="1.000" fill="#FFFFFF" stroke="none"  /><ellipse cx="39.000" cy="14.000" rx="1.000" ry="1.000" fill="none" stroke="#000000"  stroke-width="0.100" /><text x="39.000" y="14.344"  fill="#000000" text-anchor="middle" font-size="1.41" font-family="DejaVu Sans" font-style="normal" font-weight="400">
3</text>
<ellipse cx="42.000" cy="14.000" rx="1.000" ry="1.000" fill="#FFFFFF" stroke="none"  /><ellipse cx="42.000" cy="14.000" rx="1.000" ry="1.000" fill="none" stroke="#000000"  stroke-width="0.100" /><text x="42.000" y="14.344"  fill="#000000" text-anchor="middle" font-size="1.41" font-family="DejaVu Sans" font-style="normal" font-weight="400">
3</text>
<ellipse cx="45.000" cy="14.000" rx="1.000" ry="1.000" fill="#FFFFFF" stroke="none"  /><ellipse cx="45.000" cy="14.000" rx="1.000" ry="1.000" fill="none" stroke="#000000"  stroke-width="0.100" /><text x="45.000" y="14.344"  fill="#000000" text-anchor="middle" font-size="1.41" font-family="DejaVu Sans" font-style="normal" font-weight="400">
3</text>
<ellipse cx="48.000" cy="14.000" rx="1.000" ry="1.000" fill="#FFFFFF" stroke="none"  /><ellipse cx="48.000" cy="14.000" rx="1.000" ry="1.000" fill="none" stroke="#000000"  stroke-width="0.100" /><text x="48.000" y="14.344"  fill="#000000" text-anchor="middle" font-size="1.41" font-family="DejaVu Sans" font-style="normal" font-weight="400">
3</text>
<ellipse cx="28.500" cy="10.000" rx="1.000" ry="1.000" fill="#FFFFFF" stroke="none"  /><ellipse cx="28.500" cy="10.000" rx="1.000" ry="1.000" fill="none" stroke="#000000"  stroke-width="0.100" /><text x="28.500" y="10.344"  fill="#000000" text-anchor="middle" font-size="1.41" font-family="DejaVu Sans" font-style="normal" font-weight="400">
2</text>
<ellipse cx="34.500" cy="10.000" rx="1.000" ry="1.000" fill="#FFFFFF" stroke="none"  /><ellipse cx="34.500" cy="10.000" rx="1.000" ry="1.000" fill="none" stroke="#000000"  stroke-width="0.100" /><text x="34.500" y="10.344"  fill="#000000" text-anchor="middle" font-size="1.41" font-family="DejaVu Sans" font-style="normal" font-weight="400">
2</text>
<ellipse cx="40.500" cy="10.000" rx="1.000" ry="1.000" fill="#FFFFFF" stroke="none"  /><ellipse cx="40.500" cy="10.000" rx="1.000" ry="1.000" fill="none" stroke="#000000"  stroke-width="0.100" /><text x="40.500" y="10.344"  fill="#000000" text-anchor="middle" font-size="1.41" font-family="DejaVu Sans" font-style="normal" font-weight="400">
2</text>
<ellipse cx="46.500" cy="10.000" rx="1.000" ry="1.000" fill="#FFFFFF" stroke="none"  /><ellipse cx="46.500" cy="10.000" rx="1.000" ry="1.000" fill="none" stroke="#000000"  stroke-width="0.100" /><text x="46.500" y="10.344"  fill="#000000" text-anchor="middle" font-size="1.41" font-family="DejaVu Sans" font-style="normal" font-weight="400">
2</text>
<ellipse cx="31.500" cy="6.000" rx="1.000" ry="1.000" fill="#FFFFFF" stroke="none"  /><ellipse cx="31.500" cy="6.000" rx="1.000" ry="1.000" fill="none" stroke="#000000"  stroke-width="0.100" /><text x="31.500" y="6.344"  fill="#000000" text-anchor="middle" font-size="1.41" font-family="DejaVu Sans" font-style="normal" font-weight="400">
1</text>
<ellipse cx="43.500" cy="6.000" rx="1.000" ry="1.000" fill="#FFFFFF" stroke="none"  /><ellipse cx="43.500" cy="6.000" rx="1.000" ry="1.000" fill="none" stroke="#000000"  stroke-width="0.100" /><text x="43.500" y="6.344"  fill="#000000" text-anchor="middle" font-size="1.41" font-family="DejaVu Sans" font-style="normal" font-weight="400">
1</text>
<ellipse cx="37.500" cy="2.000" rx="1.000" ry="1.000" fill="#FFFFFF" stroke="none"  /><ellipse cx="37.500" cy="2.000" rx="1.000" ry="1.000" fill="none" stroke="#000000"  stroke-width="0.100" /><text x="37.500" y="2.344"  fill="#000000" text-anchor="middle" font-size="1.41" font-family="DejaVu Sans" font-style="normal" font-weight="400">
0</text>
<line x1="36.627" y1="2.582" x2="32.373" y2="5.418" stroke="#000000" stroke-width="0.100" />
<line x1="38.373" y1="2.582" x2="42.627" y2="5.418" stroke="#000000" stroke-width="0.100" />
<line x1="42.870" y1="6.840" x2="41.130" y2="9.160" stroke="#000000" stroke-width="0.100" />
<line x1="30.870" y1="6.840" x2="29.130" y2="9.160" stroke="#000000" stroke-width="0.100" />
<line x1="32.130" y1="6.840" x2="33.870" y2="9.160" stroke="#000000" stroke-width="0.100" />
<line x1="28.131" y1="10.983" x2="27.369" y2="13.017" stroke="#000000" stroke-width="0.100" />
<line x1="28.869" y1="10.983" x2="29.631" y2="13.017" stroke="#000000" stroke-width="0.100" />
<line x1="34.131" y1="10.983" x2="33.369" y2="13.017" stroke="#000000" stroke-width="0.100" />
<line x1="34.869" y1="10.983" x2="35.631" y2="13.017" stroke="#000000" stroke-width="0.100" />
<line x1="40.131" y1="10.983" x2="39.369" y2="13.017" stroke="#000000" stroke-width="0.100" />
<line x1="40.869" y1="10.983" x2="41.631" y2="13.017" stroke="#000000" stroke-width="0.100" />
<line x1="46.131" y1="10.983" x2="45.369" y2="13.017" stroke="#000000" stroke-width="0.100" />
<line x1="46.869" y1="10.983" x2="47.631" y2="13.017" stroke="#000000" stroke-width="0.100" />
<line x1="44.130" y1="6.840" x2="45.870" y2="9.160" stroke="#000000" stroke-width="0.100" />
<text x="13.000" y="16.500"  fill="#000000" text-anchor="middle" font-size="1.41" font-family="DejaVu Sans" font-style="normal" font-weight="400">
Bottom-up (siftDown)</text>
<text x="37.500" y="16.500"  fill="#000000" text-anchor="middle" font-size="1.41" font-family="DejaVu Sans" font-style="normal" font-weight="400">
Top-down (siftUp)</text>
<text x="2.000" y="18.000"  fill="#000000" text-anchor="start" font-size="0.71" font-family="DejaVu Sans" font-style="normal" font-weight="400">
The number in the circle indicates the maximum times of swapping required when adding the node to the heap.</text>
<polyline fill="none" stroke="#FF0000" stroke-width="0.100" stroke-dasharray="0.20,0.20" points="37.500,3.500 33.500,6.000 41.500,6.000 30.466,9.358 "/>
<polygon fill="#FF0000" stroke="none" stroke-width="0.100" points="30.107,9.467 30.513,9.083 30.466,9.358 30.658,9.561 "/>
<polygon fill="none" stroke="#FF0000" stroke-width="0.100"  points="30.107,9.467 30.513,9.083 30.466,9.358 30.658,9.561 "/>
<polyline fill="none" stroke="#FF0000" stroke-width="0.100" stroke-dasharray="0.20,0.20" points="22.500,12.500 3.500,12.500 20.500,10.500 17.987,10.500 "/>
<polygon fill="#FF0000" stroke="none" stroke-width="0.100" points="17.612,10.500 18.112,10.250 17.987,10.500 18.112,10.750 "/>
<polygon fill="none" stroke="#FF0000" stroke-width="0.100"  points="17.612,10.500 18.112,10.250 17.987,10.500 18.112,10.750 "/>
</svg>